<?xml version="1.0" standalone="no"?>
<!DOCTYPE svg PUBLIC "-//W3C//DTD SVG 20010904//EN"
 "http://www.w3.org/TR/2001/REC-SVG-20010904/DTD/svg10.dtd">
<svg version="1.0" xmlns="http://www.w3.org/2000/svg"
 width="137.000000pt" height="137.000000pt" viewBox="0 0 137.000000 137.000000"
 preserveAspectRatio="xMidYMid meet">
<metadata>
Created by potrace 1.11, written by Peter Selinger 2001-2013
</metadata>
<g transform="translate(0.000000,137.000000) scale(0.100000,-0.100000)"
fill="#000000" stroke="none">
<path d="M427 1125 c-20 -12 -32 -13 -46 -5 -26 13 -94 13 -108 -1 -8 -8 -23
-9 -51 -2 -28 7 -47 7 -68 -2 -18 -7 -38 -9 -51 -4 -35 13 -92 -14 -93 -43 0
-9 25 -5 54 7 11 5 26 3 38 -4 15 -9 25 -9 49 3 29 14 37 14 77 -1 29 -11 42
-12 42 -3 0 4 14 13 30 19 31 10 72 2 84 -17 9 -14 30 -9 50 11 25 24 87 22
120 -4 38 -30 55 -11 24 26 -30 34 -107 44 -151 20z"/>
<path d="M565 1006 c-39 -11 -40 -12 -43 -64 -2 -43 -6 -53 -20 -51 -54 5 -52
12 -52 -174 l0 -173 -137 1 c-76 0 -146 -1 -155 -3 -23 -6 -23 -24 2 -73 20
-39 120 -157 120 -142 0 5 4 3 8 -2 22 -31 199 -105 292 -122 81 -15 299 -9
370 10 182 49 300 126 374 244 32 53 34 79 4 85 -13 2 -157 3 -320 3 -263 -1
-298 1 -299 14 0 9 -1 85 -1 169 0 164 0 163 -51 166 -19 1 -22 7 -23 54 -1
28 -2 57 -3 62 -1 12 -15 12 -66 -4z m31 -74 c1 -25 -3 -32 -17 -32 -15 0 -19
8 -19 36 0 28 3 35 18 32 12 -2 17 -13 18 -36z m74 -232 l0 -156 -90 0 c-80 0
-90 2 -91 18 0 10 0 74 0 143 0 69 0 131 0 138 1 10 23 14 91 14 l90 -1 0
-156z m619 -221 c-53 -100 -209 -196 -374 -230 -66 -14 -219 -19 -281 -9 -97
16 -115 21 -178 44 -110 42 -183 95 -237 174 l-30 42 556 0 556 0 -12 -21z"/>
<path d="M538 798 c-2 -7 -4 -26 -3 -43 0 -29 2 -30 44 -30 47 0 49 2 42 75
-1 15 -78 12 -83 -2z m62 -33 c0 -7 -7 -16 -15 -19 -20 -7 -33 23 -14 34 16
10 29 4 29 -15z"/>
<path d="M543 671 c-6 -3 -9 -22 -9 -41 1 -34 2 -35 44 -38 24 -2 42 1 43 7 6
70 4 75 -33 76 -20 2 -40 0 -45 -4z m55 -38 c-2 -10 -10 -18 -18 -18 -8 0 -16
8 -18 18 -2 12 3 17 18 17 15 0 20 -5 18 -17z"/>
<path d="M1063 459 c4 -15 0 -27 -11 -35 -16 -12 -16 -13 1 -19 9 -4 17 -16
17 -26 0 -18 -1 -19 -25 -3 -28 18 -34 4 -9 -20 21 -22 67 -20 87 2 22 24 9
37 -15 15 -17 -15 -18 -15 -18 10 0 15 5 27 10 27 6 0 10 5 10 11 0 5 -5 7
-11 3 -7 -4 -10 4 -7 22 2 22 -2 30 -16 32 -15 3 -18 0 -13 -19z"/>
<path d="M373 423 c-3 -10 -8 -21 -10 -25 -2 -4 5 -16 16 -27 18 -18 25 -19
46 -9 25 11 31 31 19 62 -9 22 -63 21 -71 -1z m53 -14 c10 -17 -13 -36 -27
-22 -12 12 -4 33 11 33 5 0 12 -5 16 -11z"/>
<path d="M542 423 c-13 -25 3 -63 27 -63 46 0 61 22 45 64 -8 22 -61 21 -72
-1z m51 -18 c8 -18 -11 -31 -25 -17 -11 11 -3 32 12 32 4 0 10 -7 13 -15z"/>
<path d="M712 423 c-20 -39 16 -78 54 -61 24 11 30 32 18 62 -8 22 -61 21 -72
-1z m52 -11 c2 -4 1 -14 -4 -22 -7 -11 -12 -12 -21 -3 -6 6 -8 16 -5 22 8 13
23 14 30 3z"/>
<path d="M211 797 c-18 -18 -14 -85 7 -95 21 -10 162 -9 180 1 16 11 15 82 -1
96 -18 14 -171 13 -186 -2z m162 -42 c8 -20 1 -23 -70 -24 -56 0 -63 2 -63 19
0 18 7 20 64 20 47 0 65 -4 69 -15z"/>
<path d="M763 802 c-19 -12 -24 -79 -6 -93 16 -14 159 -20 184 -8 16 8 21 73
6 96 -8 13 -164 17 -184 5z m157 -51 c0 -16 -9 -19 -68 -20 -61 -1 -68 1 -69
19 -2 18 4 20 68 20 61 0 69 -2 69 -19z"/>
<path d="M1001 787 c-8 -21 -4 -77 5 -86 3 -3 43 -5 91 -6 97 -1 114 8 110 58
-4 52 -10 55 -107 55 -85 1 -92 -1 -99 -21z m169 -37 c0 -18 -6 -20 -69 -19
-62 1 -69 3 -68 20 1 17 10 19 69 19 61 0 68 -2 68 -20z"/>
<path d="M210 666 c-14 -14 -12 -82 3 -94 14 -12 166 -11 185 1 6 5 12 26 12
47 0 21 -6 42 -12 47 -18 11 -177 10 -188 -1z m163 -32 c3 -3 3 -12 0 -20 -4
-10 -23 -14 -69 -14 -57 0 -64 2 -64 20 0 18 7 20 63 20 35 0 66 -3 70 -6z"/>
<path d="M762 671 c-17 -11 -21 -81 -6 -96 16 -15 168 -17 192 -2 13 8 10 82
-3 96 -8 8 -171 10 -183 2z m158 -51 c0 -18 -7 -20 -69 -20 -64 0 -70 2 -68
20 1 18 8 20 69 20 61 0 68 -2 68 -20z"/>
<path d="M1018 672 c-10 -2 -19 -11 -19 -20 -4 -36 -1 -74 6 -80 12 -12 185
-10 193 2 10 16 11 71 2 86 -8 13 -140 22 -182 12z m152 -52 c0 -18 -7 -20
-68 -20 -61 0 -68 2 -69 20 -2 18 4 20 68 20 62 0 69 -2 69 -20z"/>
</g>
</svg>
